<svg width="17" height="18" viewBox="0 0 17 18" fill="none" xmlns="http://www.w3.org/2000/svg">
<g id="teenyicons:tick-circle-solid" clip-path="url(#clip0_11_64)">
<path id="Vector" fill-rule="evenodd" clip-rule="evenodd" d="M0.771729 9.01728C0.771729 6.86067 1.61287 4.79238 3.1101 3.26742C4.60733 1.74246 6.63802 0.885742 8.75542 0.885742C10.8728 0.885742 12.9035 1.74246 14.4007 3.26742C15.898 4.79238 16.7391 6.86067 16.7391 9.01728C16.7391 11.1739 15.898 13.2422 14.4007 14.7672C12.9035 16.2921 10.8728 17.1488 8.75542 17.1488C6.63802 17.1488 4.60733 16.2921 3.1101 14.7672C1.61287 13.2422 0.771729 11.1739 0.771729 9.01728H0.771729ZM8.29982 12.4976L12.8963 6.64504L12.066 5.9685L8.14653 10.9569L5.37034 8.60095L4.68906 9.43362L8.29982 12.4987V12.4976Z" fill="black"/>
</g>
<defs>
<clipPath id="clip0_11_64">
<rect width="15.9674" height="16.2631" fill="white" transform="translate(0.771729 0.885742)"/>
</clipPath>
</defs>
</svg>
