
<svg width="80" height="99" viewBox="0 0 80 99" fill="none" xmlns="http://www.w3.org/2000/svg">
<path id="Vector" d="M40 54.0833C35.1653 54.0833 31.0877 52.4248 27.7673 49.1077C24.4469 45.7906 22.7884 41.713 22.7917 36.875C22.7949 32.037 24.4551 27.9594 27.7722 24.6423C31.0893 21.3252 35.1653 19.6667 40 19.6667C44.8347 19.6667 48.9123 21.3269 52.2327 24.6472C55.553 27.9676 57.2116 32.0436 57.2083 36.875C57.205 41.7064 55.5465 45.784 52.2327 49.1077C48.9188 52.4313 44.8413 54.0899 40 54.0833ZM40 44.25C42.1305 44.25 43.8923 43.5535 45.2854 42.1604C46.6785 40.7674 47.375 39.0056 47.375 36.875C47.375 34.7444 46.6785 32.9826 45.2854 31.5896C43.8923 30.1965 42.1305 29.5 40 29.5C37.8694 29.5 36.1076 30.1965 34.7146 31.5896C33.3215 32.9826 32.625 34.7444 32.625 36.875C32.625 39.0056 33.3215 40.7674 34.7146 42.1604C36.1076 43.5535 37.8694 44.25 40 44.25ZM40 98.3333C28.6097 95.4653 19.2058 88.9294 11.7882 78.7257C4.37055 68.5219 0.663381 57.1939 0.666659 44.7417V14.75L40 0L79.3333 14.75V44.7417C79.3333 57.1972 75.6262 68.5269 68.2118 78.7306C60.7975 88.9343 51.3935 95.4686 40 98.3333ZM40 10.4479L10.5 21.5104V44.7417C10.5 49.1667 11.1146 53.4688 12.3437 57.6479C13.5729 61.8271 15.2528 65.7604 17.3833 69.4479C20.825 67.7271 24.4305 66.375 28.2 65.3917C31.9694 64.4083 35.9028 63.9167 40 63.9167C44.0972 63.9167 48.0305 64.4083 51.8 65.3917C55.5694 66.375 59.175 67.7271 62.6167 69.4479C64.7472 65.7604 66.4271 61.8271 67.6562 57.6479C68.8854 53.4688 69.5 49.1667 69.5 44.7417V21.5104L40 10.4479ZM40 73.75C37.05 73.75 34.1819 74.0778 31.3958 74.7333C28.6097 75.3889 25.9465 76.2903 23.4062 77.4375C25.7826 79.8958 28.3639 82.0264 31.15 83.8292C33.9361 85.6319 36.8861 87.025 40 88.0083C43.1139 87.025 46.0639 85.6319 48.85 83.8292C51.6361 82.0264 54.2174 79.8958 56.5937 77.4375C54.0535 76.2903 51.3903 75.3889 48.6042 74.7333C45.818 74.0778 42.95 73.75 40 73.75Z" fill="url(#paint0_linear_7_18)"/>
<defs>
<linearGradient id="paint0_linear_7_18" x1="40" y1="0" x2="40" y2="98.3333" gradientUnits="userSpaceOnUse">
<stop stop-color="#C7B77B"/>
<stop offset="1" stop-color="#718D71"/>
</linearGradient>
</defs>
</svg>
