<svg width="42" height="42" viewBox="0 0 42 42" fill="none" xmlns="http://www.w3.org/2000/svg">
<g id="ICO">
<path id="Vector" d="M24.3333 9.16675L32.5 17.3334M9.16667 24.3334L17.3333 32.5001M17.3333 9.16675L9.16667 17.3334M32.5 24.3334L24.3333 32.5001" stroke="black" stroke-width="1.16667" stroke-linecap="round"/>
<path id="Vector_2" d="M20.8333 10.3333C23.4107 10.3333 25.5 8.24399 25.5 5.66667C25.5 3.08934 23.4107 1 20.8333 1C18.256 1 16.1667 3.08934 16.1667 5.66667C16.1667 8.24399 18.256 10.3333 20.8333 10.3333Z" stroke="black" stroke-width="1.16667"/>
<path id="Vector_3" d="M20.8333 40.6666C23.4107 40.6666 25.5 38.5772 25.5 35.9999C25.5 33.4226 23.4107 31.3333 20.8333 31.3333C18.256 31.3333 16.1667 33.4226 16.1667 35.9999C16.1667 38.5772 18.256 40.6666 20.8333 40.6666Z" stroke="black" stroke-width="1.16667"/>
<path id="Vector_4" d="M5.66667 25.5001C8.24399 25.5001 10.3333 23.4107 10.3333 20.8334C10.3333 18.2561 8.24399 16.1667 5.66667 16.1667C3.08934 16.1667 1 18.2561 1 20.8334C1 23.4107 3.08934 25.5001 5.66667 25.5001Z" stroke="black" stroke-width="1.16667"/>
<path id="Vector_5" d="M36 25.5001C38.5773 25.5001 40.6667 23.4107 40.6667 20.8334C40.6667 18.2561 38.5773 16.1667 36 16.1667C33.4227 16.1667 31.3333 18.2561 31.3333 20.8334C31.3333 23.4107 33.4227 25.5001 36 25.5001Z" stroke="black" stroke-width="1.16667"/>
<path id="Vector_6" d="M5.66667 22.0001C6.311 22.0001 6.83333 21.4777 6.83333 20.8334C6.83333 20.1891 6.311 19.6667 5.66667 19.6667C5.02233 19.6667 4.5 20.1891 4.5 20.8334C4.5 21.4777 5.02233 22.0001 5.66667 22.0001Z" stroke="black" stroke-width="1.16667"/>
</g>
</svg>
