
<svg width="42" height="42" viewBox="0 0 42 42" fill="none" xmlns="http://www.w3.org/2000/svg">
<g id="Group 10">
<g id="Group">
<path id="Vector" d="M24.4998 9.16675L32.6665 17.3334M9.33318 24.3334L17.4998 32.5001M17.4998 9.16675L9.33318 17.3334M32.6665 24.3334L24.4998 32.5001" stroke="#718D71" stroke-width="1.16667" stroke-linecap="round"/>
<path id="Vector_2" d="M20.9998 10.3333C23.5772 10.3333 25.6665 8.24399 25.6665 5.66667C25.6665 3.08934 23.5772 1 20.9998 1C18.4225 1 16.3332 3.08934 16.3332 5.66667C16.3332 8.24399 18.4225 10.3333 20.9998 10.3333Z" stroke="#718D71" stroke-width="1.16667"/>
<path id="Vector_3" d="M20.9998 40.6666C23.5772 40.6666 25.6665 38.5772 25.6665 35.9999C25.6665 33.4226 23.5772 31.3333 20.9998 31.3333C18.4225 31.3333 16.3332 33.4226 16.3332 35.9999C16.3332 38.5772 18.4225 40.6666 20.9998 40.6666Z" stroke="#718D71" stroke-width="1.16667"/>
<path id="Vector_4" d="M5.83317 25.5001C8.4105 25.5001 10.4998 23.4107 10.4998 20.8334C10.4998 18.2561 8.4105 16.1667 5.83317 16.1667C3.25584 16.1667 1.1665 18.2561 1.1665 20.8334C1.1665 23.4107 3.25584 25.5001 5.83317 25.5001Z" stroke="#718D71" stroke-width="1.16667"/>
<path id="Vector_5" d="M36.1665 25.5001C38.7438 25.5001 40.8332 23.4107 40.8332 20.8334C40.8332 18.2561 38.7438 16.1667 36.1665 16.1667C33.5892 16.1667 31.4998 18.2561 31.4998 20.8334C31.4998 23.4107 33.5892 25.5001 36.1665 25.5001Z" stroke="#718D71" stroke-width="1.16667"/>
<path id="Vector_6" d="M5.83317 22.0001C6.4775 22.0001 6.99984 21.4777 6.99984 20.8334C6.99984 20.1891 6.4775 19.6667 5.83317 19.6667C5.18884 19.6667 4.6665 20.1891 4.6665 20.8334C4.6665 21.4777 5.18884 22.0001 5.83317 22.0001Z" stroke="#718D71" stroke-width="1.16667"/>
</g>
</g>
</svg>
