<svg width="625" height="609" viewBox="0 0 625 609" fill="none" xmlns="http://www.w3.org/2000/svg">
<rect width="625" height="609" rx="100" fill="url(#paint0_linear_21_91)"/>
<path d="M325 467C302.59 467 281.53 462.745 261.82 454.234C242.11 445.724 224.965 434.184 210.385 419.615C195.805 405.046 184.265 387.901 175.766 368.18C167.266 348.459 163.011 327.399 163 305C162.989 282.601 167.244 261.541 175.766 241.82C184.287 222.099 195.827 204.954 210.385 190.385C224.943 175.816 242.088 164.276 261.82 155.766C281.552 147.255 302.612 143 325 143C329.59 143 333.44 144.555 336.551 147.666C339.661 150.776 341.211 154.621 341.2 159.2V277.055C346.06 280.025 349.975 283.875 352.945 288.606C355.915 293.336 357.4 298.801 357.4 305C357.4 313.91 354.23 321.54 347.891 327.891C341.551 334.241 333.921 337.411 325 337.4C316.079 337.389 308.454 334.219 302.126 327.891C295.797 321.562 292.622 313.932 292.6 305C292.6 298.79 294.085 293.255 297.055 288.395C300.025 283.535 303.94 279.755 308.8 277.055V242.225C294.76 246.005 283.15 253.635 273.97 265.116C264.79 276.596 260.2 289.891 260.2 305C260.2 322.82 266.545 338.075 279.235 350.765C291.925 363.455 307.18 369.8 325 369.8C342.82 369.8 358.075 363.455 370.765 350.765C383.455 338.075 389.8 322.82 389.8 305C389.8 297.98 388.79 291.5 386.771 285.56C384.751 279.62 381.981 273.95 378.46 268.55C375.76 264.77 374.545 260.585 374.815 255.995C375.085 251.405 376.705 247.625 379.675 244.655C382.915 241.415 386.765 239.795 391.226 239.795C395.686 239.795 399.261 241.685 401.95 245.465C408.16 253.835 413.09 263.015 416.741 273.005C420.391 282.995 422.211 293.66 422.2 305C422.2 332 412.75 354.95 393.85 373.85C374.95 392.75 352 402.2 325 402.2C298 402.2 275.05 392.75 256.15 373.85C237.25 354.95 227.8 332 227.8 305C227.8 280.7 235.495 259.575 250.885 241.626C266.275 223.676 285.58 212.806 308.8 209.015V176.21C276.67 180.26 249.735 194.435 227.994 218.735C206.254 243.035 195.389 271.79 195.4 305C195.4 341.18 207.955 371.825 233.065 396.935C258.175 422.045 288.82 434.6 325 434.6C361.18 434.6 391.825 422.045 416.935 396.935C442.045 371.825 454.6 341.18 454.6 305C454.6 289.34 452.035 274.555 446.905 260.644C441.775 246.734 434.485 234.114 425.035 222.785C422.065 219.275 420.58 215.225 420.58 210.635C420.58 206.045 422.2 202.13 425.44 198.89C428.68 195.65 432.53 194.1 436.991 194.241C441.451 194.381 445.161 196.201 448.12 199.7C460.27 214.01 469.79 230.075 476.681 247.895C483.571 265.715 487.011 284.75 487 305C487 327.41 482.745 348.47 474.234 368.18C465.724 387.89 454.184 405.035 439.615 419.615C425.046 434.195 407.901 445.74 388.18 454.251C368.459 462.761 347.399 467.011 325 467Z" fill="black" fill-opacity="0.18" style="mix-blend-mode:overlay"/>
<path d="M246.67 356L234 343.283L281.965 295.142C287.244 289.843 293.655 287.194 301.196 287.194C308.738 287.194 315.148 289.843 320.428 295.142L330.835 305.587C332.645 307.404 334.796 308.312 337.288 308.312C339.779 308.312 341.927 307.404 343.731 305.587L384.004 265.167H360.7V247H415V301.5H396.9V278.11L356.401 318.531C351.122 323.83 344.712 326.479 337.17 326.479C329.628 326.479 323.218 323.83 317.939 318.531L307.305 307.858C305.646 306.193 303.534 305.36 300.97 305.36C298.406 305.36 296.294 306.193 294.635 307.858L246.67 356Z" fill="url(#paint1_linear_21_91)"/>
<defs>
<linearGradient id="paint0_linear_21_91" x1="195" y1="99" x2="634" y2="626" gradientUnits="userSpaceOnUse">
<stop stop-color="#324032"/>
<stop offset="1" stop-color="#718D71"/>
</linearGradient>
<linearGradient id="paint1_linear_21_91" x1="324.5" y1="247" x2="324.5" y2="356" gradientUnits="userSpaceOnUse">
<stop stop-color="#C7B77B"/>
<stop offset="1" stop-color="#718D71"/>
</linearGradient>
</defs>
</svg>
