<svg width="242" height="42" viewBox="0 0 242 42" fill="none" xmlns="http://www.w3.org/2000/svg">
<g id="logo_service 1" clip-path="url(#clip0_1_4)">
<g id="Layer 2">
<g id="Warstwa 1">
<path id="Vector" d="M93.3208 12.5282C93.3288 13.8249 92.9516 15.0947 92.2369 16.177C91.5223 17.2592 90.5023 18.1051 89.3063 18.6077C88.1103 19.1102 86.7919 19.2466 85.5182 18.9998C84.2445 18.753 83.0727 18.134 82.1513 17.2211C81.2299 16.3082 80.6002 15.1426 80.3421 13.8719C80.0839 12.6011 80.2089 11.2824 80.7012 10.0827C81.1935 8.88298 82.0309 7.85625 83.1074 7.13254C84.184 6.40882 85.4512 6.02067 86.7486 6.01724C87.6115 6.00027 88.469 6.15667 89.2703 6.47714C90.0716 6.79762 90.8003 7.27565 91.4132 7.88289C92.0262 8.49012 92.5109 9.2142 92.8385 10.0122C93.1662 10.8101 93.3302 11.6657 93.3208 12.5282ZM92.4533 12.5282C92.4533 11.0222 91.8547 9.57788 90.7892 8.51296C89.7237 7.44804 88.2785 6.84977 86.7716 6.84977C85.2647 6.84977 83.8195 7.44804 82.754 8.51296C81.6885 9.57788 81.0899 11.0222 81.0899 12.5282C81.0899 14.0343 81.6885 15.4786 82.754 16.5435C83.8195 17.6084 85.2647 18.2067 86.7716 18.2067C88.2785 18.2067 89.7237 17.6084 90.7892 16.5435C91.8547 15.4786 92.4533 14.0343 92.4533 12.5282Z" fill="#C7B77B"/>
<path id="Vector_2" d="M105.598 8.32533C105.376 7.85675 105.024 7.46163 104.584 7.18685C104.144 6.91207 103.635 6.76917 103.116 6.77509C102.803 6.76035 102.491 6.811 102.2 6.9238C101.908 7.0366 101.643 7.20906 101.422 7.43014C101.201 7.65121 101.028 7.91602 100.915 8.2076C100.802 8.49919 100.752 8.81112 100.766 9.12342C100.766 10.4842 101.714 10.9378 102.984 11.5636C103.856 11.9396 104.697 12.3831 105.5 12.8899C105.922 13.1401 106.27 13.4979 106.508 13.9267C106.747 14.3555 106.867 14.8398 106.856 15.3301C106.845 15.8328 106.734 16.3282 106.529 16.7873C106.324 17.2464 106.029 17.66 105.662 18.0039C105.295 18.3477 104.863 18.6149 104.391 18.7897C103.919 18.9645 103.418 19.0435 102.915 19.022C102.357 19.0438 101.802 18.9353 101.293 18.705C100.784 18.4748 100.337 18.1292 99.985 17.6957C99.6257 17.2917 99.3487 16.8217 99.1692 16.3119L99.8873 15.9732C100.038 16.4089 100.257 16.8179 100.536 17.1847C100.826 17.5285 101.189 17.8036 101.599 17.9903C102.008 18.177 102.454 18.2705 102.903 18.2641C103.297 18.2787 103.689 18.2142 104.057 18.0745C104.425 17.9348 104.762 17.7226 105.046 17.4506C105.33 17.1786 105.557 16.8523 105.713 16.491C105.869 16.1297 105.951 15.7408 105.954 15.3473C105.953 14.9343 105.836 14.5298 105.618 14.179C105.4 13.8282 105.089 13.5449 104.719 13.3607C104.363 13.154 103.622 12.7866 102.582 12.2641C101.329 11.6612 100.703 11.3167 100.284 10.599C100.016 10.1662 99.8767 9.66657 99.8816 9.15787C99.8714 8.73432 99.9491 8.31325 100.11 7.92113C100.27 7.52901 100.51 7.17432 100.814 6.87936C101.119 6.58439 101.481 6.35553 101.878 6.20716C102.275 6.05879 102.698 5.99411 103.122 6.0172C103.749 6.00338 104.369 6.16409 104.91 6.48141C105.452 6.79873 105.895 7.26019 106.19 7.81433L105.598 8.32533Z" fill="#C7B77B"/>
<path id="Vector_3" d="M119.897 14.6699H114.514L112.831 18.8153H111.923L117.243 5.81055L122.488 18.8153H121.58L119.897 14.6699ZM119.592 13.912L117.226 7.92921L114.818 13.912H119.592Z" fill="#C7B77B"/>
<path id="Vector_4" d="M128.25 18.8153V6.18371H130.749C131.604 6.15055 132.456 6.28894 133.257 6.5907C134.057 6.89247 134.789 7.3515 135.408 7.94065C136.574 9.17032 137.224 10.7998 137.224 12.4938C137.224 14.1877 136.574 15.8172 135.408 17.0469C134.79 17.6379 134.058 18.0985 133.258 18.4013C132.458 18.7041 131.604 18.8429 130.749 18.8095L128.25 18.8153ZM129.083 18.0574H130.726C134.064 18.0574 136.35 15.7607 136.35 12.511C136.378 11.768 136.252 11.0273 135.978 10.3358C135.704 9.64434 135.29 9.01721 134.761 8.49416C134.233 7.9711 133.601 7.56352 132.906 7.29725C132.212 7.03099 131.469 6.91183 130.726 6.94735H129.083V18.0574Z" fill="#C7B77B"/>
<path id="Vector_5" d="M149.874 14.6699H144.497L142.814 18.8153H141.9L147.22 5.81055L152.465 18.8153H151.557L149.874 14.6699ZM149.575 13.912L147.208 7.92921L144.801 13.912H149.575Z" fill="#C7B77B"/>
<path id="Vector_6" d="M177.565 18.8153L176.45 17.6038C175.271 18.5371 173.807 19.0377 172.302 19.022C170.823 18.9955 169.398 18.4603 168.268 17.5066C167.137 16.5529 166.37 15.239 166.095 13.7861C165.821 12.3332 166.055 10.8301 166.76 9.52989C167.464 8.22973 168.596 7.21195 169.963 6.64797C171.331 6.08398 172.851 6.00826 174.268 6.43353C175.685 6.85881 176.912 7.75911 177.743 8.98281C178.573 10.2065 178.956 11.6789 178.828 13.1519C178.699 14.6249 178.066 16.0085 177.036 17.0699L178.662 18.7923L177.565 18.8153ZM175.916 17.0354L172.756 13.6479H173.853L176.485 16.4842C177.479 15.4097 178.016 13.9913 177.984 12.5282C177.984 11.0222 177.385 9.57787 176.32 8.51295C175.254 7.44803 173.809 6.84977 172.302 6.84977C170.795 6.84977 169.35 7.44803 168.285 8.51295C167.219 9.57787 166.621 11.0222 166.621 12.5282C166.601 13.2822 166.734 14.0323 167.012 14.7335C167.29 15.4347 167.707 16.0726 168.237 16.6089C168.768 17.1451 169.402 17.5687 170.1 17.8541C170.799 18.1395 171.548 18.2809 172.302 18.2699C173.612 18.2822 174.887 17.8467 175.916 17.0354Z" fill="#C7B77B"/>
<path id="Vector_7" d="M185.372 18.8153V6.18371H187.86C188.714 6.15055 189.567 6.28894 190.367 6.5907C191.167 6.89247 191.899 7.3515 192.519 7.94065C193.685 9.17032 194.334 10.7998 194.334 12.4938C194.334 14.1877 193.685 15.8172 192.519 17.0469C191.901 17.6389 191.169 18.1005 190.369 18.4044C189.569 18.7082 188.715 18.8479 187.86 18.8153H185.372ZM186.205 18.0574H187.86C191.197 18.0574 193.484 15.7607 193.484 12.511C193.512 11.768 193.385 11.0273 193.111 10.3358C192.838 9.64434 192.424 9.01721 191.895 8.49416C191.366 7.9711 190.734 7.56352 190.04 7.29725C189.345 7.03099 188.603 6.91183 187.86 6.94735H186.217L186.205 18.0574Z" fill="#C7B77B"/>
<path id="Vector_8" d="M213.287 12.5283C213.295 13.8256 212.917 15.0962 212.202 16.1788C211.486 17.2614 210.465 18.1073 209.268 18.6094C208.071 19.1114 206.752 19.2469 205.478 18.9986C204.204 18.7504 203.032 18.1297 202.111 17.2151C201.19 16.3005 200.562 15.1333 200.306 13.8614C200.05 12.5895 200.177 11.2702 200.672 10.0708C201.167 8.87137 202.007 7.84583 203.086 7.12418C204.165 6.40253 205.434 6.01728 206.732 6.01725C207.593 6.00341 208.448 6.16207 209.247 6.48387C210.046 6.80567 210.772 7.2841 211.383 7.89094C211.994 8.49778 212.478 9.22074 212.804 10.0172C213.131 10.8136 213.295 11.6674 213.287 12.5283ZM212.414 12.5283C212.414 11.0222 211.815 9.57789 210.749 8.51297C209.684 7.44805 208.239 6.84979 206.732 6.84979C205.225 6.84979 203.78 7.44805 202.714 8.51297C201.649 9.57789 201.05 11.0222 201.05 12.5283C201.05 14.0343 201.649 15.4786 202.714 16.5435C203.78 17.6085 205.225 18.2067 206.732 18.2067C208.239 18.2067 209.684 17.6085 210.749 16.5435C211.815 15.4786 212.414 14.0343 212.414 12.5283Z" fill="#C7B77B"/>
<path id="Vector_9" d="M219.273 6.18945L222.984 16.9378L226.581 6.18945H227.5L222.996 19.3263L218.371 6.18945H219.273Z" fill="#C7B77B"/>
<path id="Vector_10" d="M239.403 14.6699H234.026L232.343 18.8153H231.429L236.755 5.81055L242 18.8153H241.087L239.403 14.6699ZM239.099 13.912L236.732 7.92921L234.331 13.912H239.099Z" fill="#C7B77B"/>
<path id="Vector_11" d="M84.2726 34.2086H81.6931L80.9635 35.9311H80.2167L83.0087 29.5751L85.7318 35.9311H84.985L84.2726 34.2086ZM84.0083 33.5713L82.9915 31.1483L81.9574 33.5713H84.0083Z" fill="#C7B77B"/>
<path id="Vector_12" d="M91.3446 29.8565C91.8893 29.8016 92.4347 29.9532 92.8728 30.2813C93.0578 30.4436 93.205 30.6444 93.3043 30.8695C93.4035 31.0946 93.4523 31.3387 93.4473 31.5847C93.4473 32.4345 92.9072 33.3072 91.5285 33.3072H90.954V35.9426H90.2818V29.8565H91.3446ZM90.9195 32.6469H91.494C92.2983 32.6469 92.7809 32.245 92.7809 31.5445C92.7809 30.5799 91.8789 30.4938 91.4423 30.4938H90.9425L90.9195 32.6469Z" fill="#C7B77B"/>
<path id="Vector_13" d="M100.893 34.2086H98.3075L97.5836 35.9311H96.8368L99.6288 29.5751L102.352 35.9311H101.605L100.893 34.2086ZM100.628 33.5713L99.6116 31.1483L98.5718 33.5713H100.628Z" fill="#C7B77B"/>
<path id="Vector_14" d="M107.821 29.8565C108.333 29.822 108.844 29.9378 109.292 30.1895C109.561 30.3954 109.762 30.6775 109.868 30.9991C109.975 31.3207 109.982 31.6668 109.889 31.9926C109.796 32.3183 109.607 32.6086 109.347 32.8256C109.087 33.0427 108.767 33.1764 108.43 33.2096L110.36 35.9196H109.539L107.695 33.267H107.517V35.9196H106.856V29.8565H107.821ZM107.517 32.6641H107.947C108.786 32.6641 109.286 32.2622 109.286 31.556C109.298 31.3772 109.259 31.1987 109.174 31.0412C109.088 30.8837 108.96 30.7536 108.803 30.666C108.533 30.5332 108.231 30.4738 107.93 30.4938H107.517V32.6641Z" fill="#C7B77B"/>
<path id="Vector_15" d="M116.548 30.4938V35.9196H115.875V30.4938H114.399V29.8564H118.024V30.4938H116.548Z" fill="#C7B77B"/>
<path id="Vector_16" d="M125.51 34.2086H122.942L122.218 35.9311H121.471L124.263 29.5751L126.963 35.9196H126.216L125.51 34.2086ZM125.24 33.5713L124.223 31.1483L123.183 33.5713H125.24Z" fill="#C7B77B"/>
<path id="Vector_17" d="M131.255 35.9196L132.266 29.5177L134.593 34.6392L136.971 29.512L137.913 35.9196H137.224L136.649 31.6995L134.587 36.1722L132.547 31.6995L131.944 35.9196H131.255Z" fill="#C7B77B"/>
<path id="Vector_18" d="M146.105 30.4938H143.624V32.2909H146.031V32.9282H143.624V35.2823H146.1V35.9196H142.951V29.8564H146.1L146.105 30.4938Z" fill="#C7B77B"/>
<path id="Vector_19" d="M150.983 35.9196V29.6038L155.717 34.5588V29.8565H156.389V36.1722L151.666 31.2344V35.9196H150.983Z" fill="#C7B77B"/>
<path id="Vector_20" d="M163.087 30.4938V35.9196H162.415V30.4938H160.945V29.8564H164.564V30.4938H163.087Z" fill="#C7B77B"/>
<path id="Vector_21" d="M170.59 33.3014L168.597 29.8564H169.378L170.924 32.5665L172.492 29.8564H173.273L171.263 33.3014V35.9139H170.59V33.3014Z" fill="#C7B77B"/>
<path id="Vector_22" d="M5.51515 2.61243L0 6.09185V7.14257L5.51515 3.66314L10.4041 6.75214L11.2371 6.22391L5.51515 2.61243Z" fill="#C7B77B"/>
<path id="Vector_23" d="M0 11.2307V12.2814L5.51515 8.80194L7.4397 10.0192V8.96271L5.51515 7.74548L0 11.2307Z" fill="#C7B77B"/>
<path id="Vector_24" d="M0 16.3694V17.4201L5.51515 13.9407L7.4397 15.1579V14.1014L5.51515 12.8842L0 16.3694Z" fill="#C7B77B"/>
<path id="Vector_25" d="M0 21.5024V22.5588L5.51515 19.0794L7.4397 20.2966V19.2402L5.51515 18.0229L0 21.5024Z" fill="#C7B77B"/>
<path id="Vector_26" d="M0 26.6813V27.7378L5.51515 24.2526L7.4397 25.4698V24.4191L5.51515 23.2019L0 26.6813Z" fill="#C7B77B"/>
<path id="Vector_27" d="M50.6417 0.103333H50.6359L40.8523 6.27558L41.6853 6.80381L50.6417 1.15405L60.77 7.55596V6.49376L50.6417 0.103333Z" fill="#C7B77B"/>
<path id="Vector_28" d="M50.6359 5.133L44.5635 8.96266V10.0191L50.6417 6.18371L60.77 12.5856V11.5292L50.6417 5.133H50.6359Z" fill="#C7B77B"/>
<path id="Vector_29" d="M50.6359 10.4785L44.5635 14.3081V15.3646L50.6417 11.5292L60.77 17.9253V16.8746L50.6417 10.4785H50.6359Z" fill="#C7B77B"/>
<path id="Vector_30" d="M50.6359 15.5139L44.5635 19.3435V20.3942L50.6417 16.5588L60.77 22.9607V21.9043L50.6417 15.5139H50.6359Z" fill="#C7B77B"/>
<path id="Vector_31" d="M50.6359 20.5435L44.5635 24.3732V25.4296L50.6417 21.5942L60.77 27.9904V26.9397L50.6417 20.5435H50.6359Z" fill="#C7B77B"/>
<path id="Vector_32" d="M50.6359 25.8832L44.5635 29.7186V30.7694L50.6417 26.9397L60.77 33.3359V32.2852L50.6417 25.8832H50.6359Z" fill="#C7B77B"/>
<path id="Vector_33" d="M41.5589 9.82392L26.0073 0H26.0016L10.4443 9.82392V10.8632L10.4385 10.8574L10.4443 10.8746L10.4558 10.8689L26.0016 1.05646L41.5474 10.8689L41.5589 10.8746L41.5704 10.8574L41.5589 10.8632V9.82392Z" fill="#C7B77B"/>
<path id="Vector_34" d="M26.0016 6.08612L39.3242 14.4976L41.5589 15.91V14.8536L39.3242 13.4411L26.0074 5.0354H26.0016L12.6849 13.4411L10.4443 14.8536V15.91L12.6849 14.4976L26.0016 6.08612Z" fill="#C7B77B"/>
<path id="Vector_35" d="M41.5589 20.1933L39.3242 18.7866L26.0074 10.3751H26.0016L12.6849 18.7866L10.4443 20.1933V21.1407V21.2555L10.5363 21.1981L12.6849 19.8431L26.0016 11.4316L39.3242 19.8431L41.5475 21.244L41.5589 21.2555L41.5704 21.2325L41.5589 21.2383V20.1933Z" fill="#C7B77B"/>
<path id="Vector_36" d="M41.5589 25.2287L39.3242 23.822L26.0074 15.4105H26.0016L12.6849 23.822L10.4443 25.2287V26.2852L12.6849 24.8727L26.0016 16.4612L39.3242 24.8727L41.5475 26.2794L41.5589 26.2852L41.5704 26.2679L41.5589 26.2737V25.2287Z" fill="#C7B77B"/>
<path id="Vector_37" d="M41.5589 30.5742L39.3242 29.1617L26.0074 20.7502H26.0016L12.6849 29.1617L10.4443 30.5742V31.6249L12.6849 30.2124L26.0016 21.8067L39.3242 30.2124L41.5475 31.6191H41.5532L41.5589 31.6249L41.5647 31.6134L41.5589 31.6191V30.5742Z" fill="#C7B77B"/>
<path id="Vector_38" d="M26.0074 25.7856H26.0016L12.6849 34.1914L10.4443 35.6038V36.6603L12.6849 35.2478L26.0016 26.8364L39.3242 35.2478L41.5589 36.6603V35.6038L39.3242 34.1914L26.0074 25.7856Z" fill="#C7B77B"/>
<path id="Vector_39" d="M26.0016 31.1254L10.4443 40.9493V42.0058L26.0016 32.1818L41.5589 42.0058V40.9493L26.0074 31.1254H26.0016Z" fill="#C7B77B"/>
</g>
</g>
</g>
<defs>
<clipPath id="clip0_1_4">
<rect width="242" height="42" fill="white"/>
</clipPath>
</defs>
</svg>
