<svg width="77" height="67" viewBox="0 0 77 67" fill="none" xmlns="http://www.w3.org/2000/svg">
<path id="Vector" d="M50.7417 59.1833L48.0167 60.0208C47.2023 60.269 46.403 60.2379 45.6187 59.9278C44.8344 59.6176 44.2242 59.1213 43.7882 58.4389L43.0365 57.1361C42.598 56.3917 42.4414 55.5852 42.5666 54.7167C42.6919 53.8481 43.0991 53.1347 43.7882 52.5764L45.8555 50.8083C45.7302 50.0018 45.6675 49.1954 45.6675 48.3889C45.6675 47.5824 45.7302 46.7759 45.8555 45.9694L43.7882 44.2014C43.0991 43.643 42.6919 42.9457 42.5666 42.1095C42.4414 41.2732 42.598 40.4816 43.0365 39.7347L43.8822 38.3389C44.3207 37.6565 44.9158 37.1602 45.6675 36.85C46.4193 36.5398 47.2023 36.5088 48.0167 36.7569L50.7417 37.5944C51.4308 37.0981 52.1048 36.68 52.7638 36.34C53.4229 36.0001 54.127 35.6738 54.8762 35.3611L55.44 32.6625C55.6279 31.794 56.0514 31.0967 56.7104 30.5706C57.3694 30.0445 58.1362 29.7803 59.0107 29.7778H60.5142C61.3912 29.7778 62.158 30.0569 62.8145 30.6153C63.471 31.1736 63.8944 31.887 64.0849 32.7556L64.6487 35.3611C65.4004 35.6713 66.1045 35.9964 66.761 36.3363C67.4175 36.6763 68.0916 37.0957 68.7832 37.5944L71.5082 36.7569C72.3226 36.5088 73.1219 36.5398 73.9062 36.85C74.6905 37.1602 75.3007 37.6565 75.7367 38.3389L76.4884 39.6417C76.9269 40.3861 77.0835 41.1926 76.9582 42.0611C76.833 42.9296 76.4258 43.643 75.7367 44.2014L73.6694 45.9694C73.7947 46.7759 73.8574 47.5824 73.8574 48.3889C73.8574 49.1954 73.7947 50.0018 73.6694 50.8083L75.7367 52.5764C76.4258 53.1347 76.833 53.8332 76.9582 54.672C77.0835 55.5107 76.9269 56.3011 76.4884 57.043L75.6427 58.4389C75.2042 59.1213 74.6091 59.6176 73.8574 59.9278C73.1056 60.2379 72.3226 60.269 71.5082 60.0208L68.7832 59.1833C68.0941 59.6796 67.4201 60.0977 66.761 60.4377C66.102 60.7777 65.3979 61.104 64.6487 61.4167L64.0849 64.1153C63.8969 64.9838 63.4747 65.6823 62.8182 66.2109C62.1617 66.7394 61.3937 67.0025 60.5142 67H59.0107C58.1337 67 57.3669 66.7208 56.7104 66.1625C56.0539 65.6041 55.6304 64.8907 55.44 64.0222L54.8762 61.4167C54.1245 61.1065 53.4204 60.7814 52.7638 60.4414C52.1073 60.1015 51.4333 59.6821 50.7417 59.1833ZM59.7624 55.8333C61.8297 55.8333 63.6 55.105 65.0734 53.6484C66.5468 52.1917 67.2822 50.4386 67.2797 48.3889C67.2772 46.3392 66.5418 44.5872 65.0734 43.1331C63.605 41.679 61.8347 40.9494 59.7624 40.9444C57.6902 40.9395 55.9211 41.669 54.4552 43.1331C52.9894 44.5972 52.2527 46.3491 52.2452 48.3889C52.2376 50.4287 52.9743 52.1818 54.4552 53.6484C55.9361 55.1149 57.7052 55.8432 59.7624 55.8333ZM7.51729 52.1111V22.3333V23.543V7.44444V52.1111ZM7.51729 14.8889H67.6556V7.44444H7.51729V14.8889ZM7.51729 59.5555C5.45003 59.5555 3.68097 58.8272 2.21008 57.3706C0.7392 55.914 0.00250576 54.1608 0 52.1111V7.44444C0 5.39722 0.736695 3.64529 2.21008 2.18867C3.68347 0.732036 5.45254 0.00248148 7.51729 0H67.6556C69.7228 0 71.4932 0.729555 72.9666 2.18867C74.4399 3.64778 75.1754 5.3997 75.1729 7.44444V22.1472C75.1729 23.2639 74.688 24.0865 73.7183 24.615C72.7486 25.1436 71.73 25.1585 70.6625 24.6597C69.0338 23.9153 67.2948 23.3408 65.4455 22.9363C63.5963 22.5318 61.7019 22.3308 59.7624 22.3333C56.1917 22.3333 52.8252 23.0008 49.663 24.3359C46.5007 25.6709 43.7281 27.4849 41.3451 29.7778H7.51729V52.1111H32.2304C33.2953 52.1111 34.1886 52.4684 34.9103 53.1831C35.6319 53.8978 35.9915 54.7812 35.989 55.8333C35.9865 56.8855 35.6269 57.7701 34.9103 58.4873C34.1936 59.2044 33.3003 59.5605 32.2304 59.5555H7.51729Z" fill="url(#paint0_linear_7_65)"/>
<defs>
<linearGradient id="paint0_linear_7_65" x1="38.5" y1="0" x2="38.5" y2="67" gradientUnits="userSpaceOnUse">
<stop stop-color="#C7B77B"/>
<stop offset="1" stop-color="#718D71"/>
</linearGradient>
</defs>
</svg>
