<svg width="78" height="72" viewBox="0 0 78 72" fill="none" xmlns="http://www.w3.org/2000/svg">
<path id="Vector" d="M38.5593 64.8C38.7956 64.8 39.032 64.74 39.2683 64.62C39.5047 64.5 39.6819 64.38 39.8001 64.26L68.871 34.74C69.5801 34.02 70.0977 33.21 70.4238 32.31C70.75 31.41 70.9119 30.51 70.9095 29.61C70.9095 28.65 70.7476 27.7344 70.4238 26.8632C70.1 25.992 69.5824 25.2276 68.871 24.57L53.8038 9.27C53.1538 8.55 52.3999 8.0256 51.5419 7.6968C50.684 7.368 49.7847 7.2024 48.844 7.2C47.9577 7.2 47.0714 7.3656 46.1851 7.6968C45.2988 8.028 44.5011 8.5524 43.792 9.27L42.8171 10.26L49.3758 17.01C50.2621 17.85 50.912 18.81 51.3257 19.89C51.7393 20.97 51.9461 22.11 51.9461 23.31C51.9461 25.83 51.1047 27.9456 49.4219 29.6568C47.7391 31.368 45.6557 32.2224 43.1716 32.22C41.9899 32.22 40.853 32.01 39.7611 31.59C38.6692 31.17 37.7084 30.54 36.8788 29.7L30.228 23.04L14.7176 38.79C14.5403 38.97 14.408 39.1656 14.3205 39.3768C14.2331 39.588 14.1882 39.8124 14.1858 40.05C14.1858 40.53 14.3631 40.9656 14.7176 41.3568C15.0721 41.748 15.4857 41.9424 15.9584 41.94C16.1948 41.94 16.4311 41.88 16.6675 41.76C16.9038 41.64 17.0811 41.52 17.1992 41.4L26.7714 31.68C27.4213 31.02 28.2344 30.6744 29.2105 30.6432C30.1866 30.612 31.028 30.9576 31.7347 31.68C32.3847 32.34 32.7096 33.18 32.7096 34.2C32.7096 35.22 32.3847 36.06 31.7347 36.72L22.2512 46.44C22.0739 46.62 21.9416 46.8156 21.8541 47.0268C21.7667 47.238 21.7218 47.4624 21.7194 47.7C21.7194 48.18 21.8967 48.6 22.2512 48.96C22.6057 49.32 23.0193 49.5 23.492 49.5C23.7284 49.5 23.9647 49.44 24.2011 49.32C24.4374 49.2 24.6147 49.08 24.7329 48.96L34.305 39.33C34.955 38.67 35.768 38.3244 36.7441 38.2932C37.7202 38.262 38.5616 38.6076 39.2683 39.33C39.9183 39.99 40.2433 40.83 40.2433 41.85C40.2433 42.87 39.9183 43.71 39.2683 44.37L29.7848 54.09C29.6076 54.21 29.4752 54.39 29.3878 54.63C29.3003 54.87 29.2554 55.11 29.253 55.35C29.253 55.83 29.4303 56.25 29.7848 56.61C30.1393 56.97 30.553 57.15 31.0257 57.15C31.262 57.15 31.4842 57.1044 31.6922 57.0132C31.9001 56.922 32.0916 56.7876 32.2665 56.61L41.8386 46.98C42.4886 46.32 43.3016 45.9744 44.2777 45.9432C45.2539 45.912 46.0953 46.2576 46.8019 46.98C47.4519 47.64 47.7769 48.48 47.7769 49.5C47.7769 50.52 47.4519 51.36 46.8019 52.02L37.2298 61.74C37.0526 61.92 36.9202 62.1156 36.8327 62.3268C36.7453 62.538 36.7004 62.7624 36.698 63C36.698 63.48 36.8906 63.9 37.2759 64.26C37.6611 64.62 38.0889 64.8 38.5593 64.8ZM38.4706 72C36.2844 72 34.3499 71.2656 32.6671 69.7968C30.9843 68.328 29.994 66.4824 29.6962 64.26C27.6872 63.96 26.0032 63.12 24.6442 61.74C23.2852 60.36 22.458 58.65 22.1626 56.61C20.1536 56.31 18.485 55.4556 17.1567 54.0468C15.8284 52.638 15.0154 50.9424 14.7176 48.96C12.4723 48.66 10.6406 47.67 9.22246 45.99C7.80437 44.31 7.09532 42.33 7.09532 40.05C7.09532 38.85 7.31749 37.6956 7.76183 36.5868C8.20616 35.478 8.84076 34.5024 9.66562 33.66L25.176 17.91C26.535 16.53 28.2048 15.84 30.1854 15.84C32.166 15.84 33.8347 16.53 35.1913 17.91L41.8386 24.66C41.9568 24.84 42.1341 24.9756 42.3704 25.0668C42.6067 25.158 42.8431 25.2024 43.0794 25.2C43.6112 25.2 44.0544 25.0356 44.4089 24.7068C44.7634 24.378 44.9407 23.9424 44.9407 23.4C44.9407 23.16 44.8958 22.92 44.806 22.68C44.7162 22.44 44.5838 22.26 44.4089 22.14L31.7347 9.27C31.0847 8.55 30.332 8.0256 29.4764 7.6968C28.6208 7.368 27.7191 7.2024 26.7714 7.2C25.8851 7.2 24.9988 7.3656 24.1124 7.6968C23.2261 8.028 22.4285 8.5524 21.7194 9.27L9.22246 22.05C8.39524 22.89 7.80437 23.88 7.44985 25.02C7.09532 26.16 7.00669 27.3 7.18396 28.44C7.36122 29.46 7.15441 30.36 6.56354 31.14C5.97267 31.92 5.17499 32.37 4.17051 32.49C3.16602 32.61 2.27972 32.3844 1.51158 31.8132C0.743447 31.242 0.300293 30.4476 0.182118 29.43C-0.172405 27.15 -0.00932443 24.9156 0.67136 22.7268C1.35205 20.538 2.51843 18.6024 4.17051 16.92L16.6675 4.23C18.0855 2.85 19.6667 1.8 21.411 1.08C23.1552 0.36 24.942 0 26.7714 0C28.6007 0 30.3887 0.36 32.1353 1.08C33.8819 1.8 35.4324 2.85 36.7867 4.23L37.7616 5.22L38.7365 4.23C40.1546 2.85 41.7358 1.8 43.4801 1.08C45.2243 0.36 47.0111 0 48.8405 0C50.6698 0 52.4578 0.36 54.2044 1.08C55.951 1.8 57.5015 2.85 58.8557 4.23L73.8344 19.44C75.1934 20.82 76.2274 22.41 76.9364 24.21C77.6455 26.01 78 27.84 78 29.7C78 31.56 77.6455 33.3756 76.9364 35.1468C76.2274 36.918 75.1934 38.4924 73.8344 39.87L44.7634 69.3C43.9362 70.14 42.9766 70.8 41.8847 71.28C40.7928 71.76 39.6548 72 38.4706 72Z" fill="url(#paint0_linear_7_67)"/>
<defs>
<linearGradient id="paint0_linear_7_67" x1="39" y1="0" x2="39" y2="72" gradientUnits="userSpaceOnUse">
<stop stop-color="#C7B77B"/>
<stop offset="1" stop-color="#718D71"/>
</linearGradient>
</defs>
</svg>
